<?xml version="1.0" encoding="UTF-8" standalone="no"?>
<!-- Created with Inkscape (http://www.inkscape.org/) -->

<svg
   xmlns:dc="http://purl.org/dc/elements/1.1/"
   xmlns:cc="http://creativecommons.org/ns#"
   xmlns:rdf="http://www.w3.org/1999/02/22-rdf-syntax-ns#"
   xmlns:svg="http://www.w3.org/2000/svg"
   xmlns="http://www.w3.org/2000/svg"
   xmlns:sodipodi="http://sodipodi.sourceforge.net/DTD/sodipodi-0.dtd"
   xmlns:inkscape="http://www.inkscape.org/namespaces/inkscape"
   version="1.1"
   id="svg2"
   xml:space="preserve"
   width="502.66666"
   height="268.70801"
   viewBox="0 0 502.66666 268.70801"
   sodipodi:docname="tesla Logos Final.svg"
   inkscape:version="0.92.4 (5da689c313, 2019-01-14)"><metadata
     id="metadata8"><rdf:RDF><cc:Work
         rdf:about=""><dc:format>image/svg+xml</dc:format><dc:type
           rdf:resource="http://purl.org/dc/dcmitype/StillImage" /><dc:title></dc:title></cc:Work></rdf:RDF></metadata><defs
     id="defs6"><clipPath
       clipPathUnits="userSpaceOnUse"
       id="clipPath30"><path
         d="M 0,201.531 H 377 V 0 H 0 Z"
         id="path28"
         inkscape:connector-curvature="0" /></clipPath></defs><sodipodi:namedview
     pagecolor="#ffffff"
     bordercolor="#666666"
     borderopacity="1"
     objecttolerance="10"
     gridtolerance="10"
     guidetolerance="10"
     inkscape:pageopacity="0"
     inkscape:pageshadow="2"
     inkscape:window-width="1920"
     inkscape:window-height="1017"
     id="namedview4"
     showgrid="false"
     inkscape:zoom="0.714191"
     inkscape:cx="251.33333"
     inkscape:cy="134.354"
     inkscape:window-x="-8"
     inkscape:window-y="-8"
     inkscape:window-maximized="1"
     inkscape:current-layer="g10" /><g
     id="g10"
     inkscape:groupmode="layer"
     inkscape:label="tesla Logos Final"
     transform="matrix(1.3333333,0,0,-1.3333333,0,268.708)"><g
       id="g12"
       transform="translate(87.3496,148.011)"><path
         d="M 0,0 H -20.055 V -72.47 H -38.107 V 0 h -20.19 V 18.185 H 0 Z"
         style="fill:#979797;fill-opacity:1;fill-rule:nonzero;stroke:none"
         id="path14"
         inkscape:connector-curvature="0" /></g><g
       id="g16"
       transform="translate(151.6641,75.5413)"><path
         d="M 0,0 H -34.631 -52.682 V 90.521 H -34.631 0 V 72.336 H -34.631 V 54.285 h 25.94 V 36.103 h -25.94 V 18.185 l 34.631,0 z"
         style="fill:#979797;fill-opacity:1;fill-rule:nonzero;stroke:none"
         id="path18"
         inkscape:connector-curvature="0" /></g><g
       id="g20"
       transform="translate(209.5586,75.5413)"><path
         d="m 0,0 h -26.207 -18.05 v 18.185 72.469 h 18.05 V 18.185 l 26.207,0 z"
         style="fill:#979797;fill-opacity:1;fill-rule:nonzero;stroke:none"
         id="path22"
         inkscape:connector-curvature="0" /></g><g
       id="g24"><g
         id="g26"
         clip-path="url(#clipPath30)"><g
           id="g32"
           transform="translate(276.4126,148.011)"><path
             d="m 0,0 h -27.377 c -2.506,0 -4.631,-0.885 -6.375,-2.654 -1.746,-1.77 -2.616,-3.894 -2.616,-6.369 0,-2.567 0.87,-4.711 2.616,-6.439 1.744,-1.726 3.869,-2.587 6.374,-2.587 h 0.939 c 3.757,0 7.293,-0.715 10.601,-2.139 3.309,-1.429 6.194,-3.367 8.656,-5.818 2.461,-2.452 4.405,-5.327 5.838,-8.624 1.431,-3.299 2.146,-6.819 2.146,-10.563 0,-3.745 -0.714,-7.288 -2.138,-10.63 -1.427,-3.342 -3.366,-6.241 -5.816,-8.693 -2.453,-2.452 -5.328,-4.388 -8.625,-5.814 -3.299,-1.429 -6.819,-2.14 -10.563,-2.14 h -26.208 -1.07 v 18.185 h 27.278 c 2.494,0 4.634,0.868 6.418,2.605 1.781,1.741 2.674,3.9 2.674,6.487 0,2.495 -0.893,4.613 -2.674,6.35 -1.784,1.74 -3.924,2.61 -6.418,2.61 h -0.936 c -3.744,0 -7.267,0.711 -10.563,2.139 -3.299,1.423 -6.175,3.363 -8.625,5.815 -2.453,2.451 -4.391,5.348 -5.816,8.692 -1.427,3.342 -2.14,6.886 -2.14,10.63 0,3.744 0.713,7.265 2.14,10.563 1.425,3.297 3.363,6.169 5.816,8.624 2.45,2.449 5.326,4.389 8.625,5.818 3.296,1.423 6.819,2.137 10.563,2.137 l 27.276,0 z"
             style="fill:#979797;fill-opacity:1;fill-rule:nonzero;stroke:none"
             id="path34"
             inkscape:connector-curvature="0" /></g><g
           id="g36"
           transform="translate(317.4043,148.011)"><path
             d="M 0,0 C -2.392,0 -4.496,-0.869 -6.312,-2.606 -8.129,-4.344 -9.035,-6.462 -9.035,-8.957 V -29.95 h 21.527 v 20.993 c 0,2.495 -0.865,4.613 -2.594,6.351 C 8.172,-0.869 6.024,0 3.457,0 Z m 3.329,18.185 c 3.823,0 7.381,-0.714 10.671,-2.137 3.291,-1.429 6.16,-3.369 8.606,-5.818 2.445,-2.455 4.379,-5.327 5.801,-8.624 1.423,-3.298 2.136,-6.819 2.136,-10.563 V -45.193 -72.47 H 12.492 v 25.539 H -9.035 V -72.47 h -18.051 v 27.277 36.236 c 0,3.744 0.71,7.265 2.133,10.563 1.423,3.297 3.335,6.169 5.737,8.624 2.4,2.449 5.246,4.389 8.537,5.818 3.289,1.423 6.804,2.137 10.539,2.137 h 2.401 z"
             style="fill:#979797;fill-opacity:1;fill-rule:nonzero;stroke:none"
             id="path38"
             inkscape:connector-curvature="0" /></g><g
           id="g40"
           transform="translate(40.7578,40.6917)"><path
             d="m 0,0 c -0.148,1.013 -0.53,1.752 -1.141,2.215 -0.611,0.46 -1.54,0.692 -2.794,0.692 -1.19,0 -2.092,-0.142 -2.704,-0.425 C -7.25,2.2 -7.555,1.714 -7.555,1.03 c 0,-0.596 0.305,-1.074 0.916,-1.431 0.612,-0.359 1.499,-0.699 2.66,-1.028 1.907,-0.536 3.516,-0.992 4.829,-1.365 1.31,-0.372 2.36,-0.811 3.152,-1.318 0.789,-0.507 1.356,-1.138 1.699,-1.898 0.341,-0.762 0.512,-1.781 0.512,-3.064 0,-1.965 -0.82,-3.598 -2.459,-4.896 -1.638,-1.295 -4.066,-1.944 -7.284,-1.944 -1.58,0 -3.012,0.181 -4.293,0.539 -1.281,0.357 -2.378,0.87 -3.286,1.542 -0.908,0.67 -1.609,1.473 -2.101,2.413 -0.492,0.94 -0.751,1.99 -0.783,3.151 H -8 c 0,-1.044 0.407,-1.847 1.228,-2.415 0.82,-0.564 1.886,-0.846 3.195,-0.846 1.103,0 2.049,0.168 2.841,0.511 0.788,0.344 1.184,0.873 1.184,1.589 0,0.804 -0.291,1.386 -0.873,1.743 -0.579,0.356 -1.467,0.67 -2.66,0.938 -2.145,0.478 -3.873,0.975 -5.183,1.499 -1.313,0.521 -2.335,1.094 -3.065,1.72 -0.73,0.626 -1.222,1.312 -1.473,2.057 -0.256,0.743 -0.381,1.577 -0.381,2.503 0,0.832 0.172,1.624 0.515,2.369 0.341,0.746 0.885,1.4 1.63,1.968 0.745,0.565 1.714,1.019 2.908,1.362 1.19,0.343 2.651,0.515 4.38,0.515 3.157,0 5.468,-0.643 6.929,-1.924 C 4.633,4.04 5.439,2.268 5.588,0 Z"
             style="fill:#000546;fill-opacity:1;fill-rule:nonzero;stroke:none"
             id="path42"
             inkscape:connector-curvature="0" /></g><g
           id="g44"
           transform="translate(78.4438,29.6526)"><path
             d="m 0,0 c 3.545,0 5.32,2.235 5.32,6.706 0,4.438 -1.775,6.658 -5.32,6.658 -3.548,0 -5.32,-2.22 -5.32,-6.658 C -5.32,2.235 -3.548,0 0,0 m 0,-4.875 c -1.79,0 -3.385,0.285 -4.785,0.851 -1.4,0.567 -2.584,1.355 -3.553,2.368 -0.969,1.013 -1.705,2.235 -2.212,3.667 -0.506,1.429 -0.76,2.995 -0.76,4.695 0,1.726 0.259,3.306 0.78,4.737 0.521,1.43 1.275,2.652 2.259,3.664 0.983,1.013 2.168,1.796 3.553,2.349 1.385,0.551 2.957,0.827 4.718,0.827 1.726,0 3.277,-0.276 4.648,-0.827 1.371,-0.553 2.54,-1.327 3.51,-2.325 0.969,-0.998 1.714,-2.212 2.235,-3.644 0.521,-1.428 0.783,-3.023 0.783,-4.781 0,-1.761 -0.262,-3.348 -0.783,-4.762 C 9.872,0.527 9.127,-0.687 8.158,-1.699 7.188,-2.712 6.013,-3.495 4.625,-4.048 3.239,-4.599 1.697,-4.875 0,-4.875"
             style="fill:#000546;fill-opacity:1;fill-rule:nonzero;stroke:none"
             id="path46"
             inkscape:connector-curvature="0" /></g><path
           d="m 110.72,55.401 h 5.809 V 25.36 h -5.809 z"
           style="fill:#000546;fill-opacity:1;fill-rule:nonzero;stroke:none"
           id="path48"
           inkscape:connector-curvature="0" /><g
           id="g50"
           transform="translate(152.3374,25.3596)"><path
             d="m 0,0 v 3.085 c -1.49,-2.444 -3.771,-3.667 -6.839,-3.667 -1.103,0 -2.11,0.195 -3.018,0.582 -0.911,0.388 -1.691,0.94 -2.346,1.653 -0.658,0.716 -1.17,1.566 -1.543,2.55 -0.375,0.984 -0.558,2.084 -0.558,3.306 v 14.485 h 5.809 V 8.405 c 0,-2.744 1.237,-4.112 3.71,-4.112 1.491,0 2.617,0.469 3.376,1.406 0.76,0.94 1.141,2.139 1.141,3.6 V 21.994 H 5.498 L 5.498,0 Z"
             style="fill:#000546;fill-opacity:1;fill-rule:nonzero;stroke:none"
             id="path52"
             inkscape:connector-curvature="0" /></g><g
           id="g54"
           transform="translate(191.854,39.845)"><path
             d="m 0,0 h 5.408 v -6.261 c 0,-1.161 -0.172,-2.272 -0.515,-3.329 -0.341,-1.059 -0.879,-1.996 -1.607,-2.817 -0.733,-0.821 -1.656,-1.467 -2.774,-1.945 -1.117,-0.476 -2.45,-0.715 -4.001,-0.715 -1.607,0 -2.981,0.239 -4.113,0.715 -1.132,0.478 -2.063,1.119 -2.794,1.924 -0.73,0.804 -1.257,1.744 -1.586,2.815 -0.329,1.074 -0.492,2.206 -0.492,3.399 v 19.668 h 5.722 V 7.509 H 5.408 V 3.396 h -12.16 v -9.031 c 0,-1.399 0.262,-2.479 0.783,-3.239 0.521,-0.76 1.38,-1.141 2.57,-1.141 1.164,0 2.02,0.372 2.57,1.118 C -0.276,-8.152 0,-7.096 0,-5.722 Z"
             style="fill:#000546;fill-opacity:1;fill-rule:nonzero;stroke:none"
             id="path56"
             inkscape:connector-curvature="0" /></g><path
           d="m 218.72,47.354 h 5.812 V 25.36 h -5.812 z m 0,8.047 h 5.812 v -5.41 h -5.812 z"
           style="fill:#000546;fill-opacity:1;fill-rule:nonzero;stroke:none"
           id="path58"
           inkscape:connector-curvature="0" /><g
           id="g60"
           transform="translate(257.0283,29.6526)"><path
             d="m 0,0 c 3.548,0 5.32,2.235 5.32,6.706 0,4.438 -1.772,6.658 -5.32,6.658 -3.545,0 -5.32,-2.22 -5.32,-6.658 C -5.32,2.235 -3.545,0 0,0 m 0,-4.875 c -1.787,0 -3.382,0.285 -4.782,0.851 -1.403,0.567 -2.587,1.355 -3.553,2.368 -0.969,1.013 -1.708,2.235 -2.215,3.667 -0.506,1.429 -0.76,2.995 -0.76,4.695 0,1.726 0.263,3.306 0.784,4.737 0.52,1.43 1.274,2.652 2.258,3.664 0.983,1.013 2.168,1.796 3.553,2.349 1.386,0.551 2.957,0.827 4.715,0.827 1.729,0 3.28,-0.276 4.651,-0.827 1.37,-0.553 2.54,-1.327 3.507,-2.325 0.969,-0.998 1.714,-2.212 2.235,-3.644 0.521,-1.428 0.783,-3.023 0.783,-4.781 0,-1.761 -0.262,-3.348 -0.783,-4.762 C 9.872,0.527 9.127,-0.687 8.158,-1.699 7.191,-2.712 6.013,-3.495 4.627,-4.048 3.242,-4.599 1.7,-4.875 0,-4.875"
             style="fill:#000546;fill-opacity:1;fill-rule:nonzero;stroke:none"
             id="path62"
             inkscape:connector-curvature="0" /></g><g
           id="g64"
           transform="translate(303.3872,25.3596)"><path
             d="m 0,0 v 13.321 c 0,1.7 -0.285,2.846 -0.85,3.443 -0.567,0.596 -1.536,0.893 -2.907,0.893 -3.01,0 -4.514,-1.681 -4.514,-5.049 V 0 h -5.812 v 21.994 h 5.544 v -3.219 c 0.684,1.251 1.592,2.198 2.727,2.84 1.132,0.641 2.593,0.961 4.38,0.961 1.042,0 2.011,-0.157 2.905,-0.469 0.896,-0.314 1.662,-0.783 2.302,-1.408 0.643,-0.626 1.149,-1.394 1.522,-2.303 0.372,-0.911 0.558,-1.96 0.558,-3.151 L 5.855,0 Z"
             style="fill:#000546;fill-opacity:1;fill-rule:nonzero;stroke:none"
             id="path66"
             inkscape:connector-curvature="0" /></g><g
           id="g68"
           transform="translate(344.0215,40.6917)"><path
             d="M 0,0 C -0.151,1.013 -0.53,1.752 -1.141,2.215 -1.752,2.675 -2.683,2.907 -3.935,2.907 -5.128,2.907 -6.03,2.765 -6.639,2.482 -7.25,2.2 -7.555,1.714 -7.555,1.03 c 0,-0.596 0.305,-1.074 0.916,-1.431 0.609,-0.359 1.496,-0.699 2.66,-1.028 1.907,-0.536 3.516,-0.992 4.829,-1.365 1.31,-0.372 2.36,-0.811 3.149,-1.318 0.792,-0.507 1.356,-1.138 1.7,-1.898 0.343,-0.762 0.515,-1.781 0.515,-3.064 0,-1.965 -0.821,-3.598 -2.46,-4.896 -1.638,-1.295 -4.068,-1.944 -7.287,-1.944 -1.58,0 -3.009,0.181 -4.29,0.539 -1.283,0.357 -2.378,0.87 -3.286,1.542 -0.911,0.67 -1.609,1.473 -2.101,2.413 -0.492,0.94 -0.754,1.99 -0.783,3.151 h 5.99 c 0,-1.044 0.41,-1.847 1.231,-2.415 0.817,-0.564 1.883,-0.846 3.195,-0.846 1.103,0 2.049,0.168 2.838,0.511 0.788,0.344 1.184,0.873 1.184,1.589 0,0.804 -0.291,1.386 -0.87,1.743 -0.582,0.356 -1.47,0.67 -2.66,0.938 -2.145,0.478 -3.873,0.975 -5.186,1.499 -1.312,0.521 -2.332,1.094 -3.062,1.72 -0.73,0.626 -1.222,1.312 -1.476,2.057 -0.253,0.743 -0.38,1.577 -0.38,2.503 0,0.832 0.171,1.624 0.515,2.369 0.343,0.746 0.887,1.4 1.632,1.968 0.745,0.565 1.711,1.019 2.905,1.362 1.193,0.343 2.651,0.515 4.38,0.515 3.16,0 5.468,-0.643 6.929,-1.924 C 4.633,4.04 5.437,2.268 5.588,0 Z"
             style="fill:#000546;fill-opacity:1;fill-rule:nonzero;stroke:none"
             id="path70"
             inkscape:connector-curvature="0" /></g></g></g></g></svg>