<?xml version="1.0" encoding="UTF-8" standalone="no"?>
<!-- Created with Inkscape (http://www.inkscape.org/) -->

<svg
   xmlns:dc="http://purl.org/dc/elements/1.1/"
   xmlns:cc="http://creativecommons.org/ns#"
   xmlns:rdf="http://www.w3.org/1999/02/22-rdf-syntax-ns#"
   xmlns:svg="http://www.w3.org/2000/svg"
   xmlns="http://www.w3.org/2000/svg"
   xmlns:sodipodi="http://sodipodi.sourceforge.net/DTD/sodipodi-0.dtd"
   xmlns:inkscape="http://www.inkscape.org/namespaces/inkscape"
   version="1.1"
   id="svg2"
   xml:space="preserve"
   width="502.66666"
   height="268.70801"
   viewBox="0 0 502.66666 268.70801"
   sodipodi:docname="pruebas Logos Final.svg"
   inkscape:version="0.92.4 (5da689c313, 2019-01-14)"><metadata
     id="metadata8"><rdf:RDF><cc:Work
         rdf:about=""><dc:format>image/svg+xml</dc:format><dc:type
           rdf:resource="http://purl.org/dc/dcmitype/StillImage" /><dc:title></dc:title></cc:Work></rdf:RDF></metadata><defs
     id="defs6"><clipPath
       clipPathUnits="userSpaceOnUse"
       id="clipPath30"><path
         d="M 0,201.531 H 377 V 0 H 0 Z"
         id="path28"
         inkscape:connector-curvature="0" /></clipPath></defs><sodipodi:namedview
     pagecolor="#ffffff"
     bordercolor="#666666"
     borderopacity="1"
     objecttolerance="10"
     gridtolerance="10"
     guidetolerance="10"
     inkscape:pageopacity="0"
     inkscape:pageshadow="2"
     inkscape:window-width="1920"
     inkscape:window-height="1017"
     id="namedview4"
     showgrid="false"
     inkscape:zoom="1.5039788"
     inkscape:cx="323.50137"
     inkscape:cy="118.36249"
     inkscape:window-x="-8"
     inkscape:window-y="-8"
     inkscape:window-maximized="1"
     inkscape:current-layer="g10" /><g
     id="g10"
     inkscape:groupmode="layer"
     inkscape:label="pruebas Logos Final"
     transform="matrix(1.3333333,0,0,-1.3333333,0,268.708)"><g
       id="g12"
       transform="translate(87.3498,148.0108)"><path
         d="M 0,0 H -20.055 V -72.47 H -38.107 V 0 h -20.19 V 18.185 H 0 Z"
         style="fill:#979797;fill-opacity:1;fill-rule:nonzero;stroke:none"
         id="path14"
         inkscape:connector-curvature="0" /></g><g
       id="g16"
       transform="translate(151.6641,75.5408)"><path
         d="M 0,0 H -34.631 -52.682 V 90.522 H -34.631 0 V 72.337 H -34.631 V 54.285 h 25.94 V 36.103 h -25.94 V 18.185 l 34.631,0 z"
         style="fill:#979797;fill-opacity:1;fill-rule:nonzero;stroke:none"
         id="path18"
         inkscape:connector-curvature="0" /></g><g
       id="g20"
       transform="translate(209.5588,75.5408)"><path
         d="m 0,0 h -26.207 -18.05 v 18.185 72.47 h 18.05 v -72.47 l 26.207,0 z"
         style="fill:#979797;fill-opacity:1;fill-rule:nonzero;stroke:none"
         id="path22"
         inkscape:connector-curvature="0" /></g><g
       id="g24"><g
         id="g26"
         clip-path="url(#clipPath30)"><g
           id="g32"
           transform="translate(276.4127,148.0108)"><path
             d="m 0,0 h -27.377 c -2.506,0 -4.632,-0.885 -6.376,-2.654 -1.745,-1.77 -2.615,-3.893 -2.615,-6.369 0,-2.566 0.87,-4.712 2.615,-6.438 1.744,-1.727 3.87,-2.588 6.375,-2.588 h 0.939 c 3.757,0 7.292,-0.714 10.601,-2.14 3.309,-1.428 6.194,-3.365 8.656,-5.817 2.461,-2.452 4.405,-5.327 5.838,-8.623 1.431,-3.299 2.146,-6.82 2.146,-10.564 0,-3.744 -0.714,-7.288 -2.138,-10.63 -1.427,-3.342 -3.366,-6.241 -5.816,-8.693 -2.453,-2.451 -5.329,-4.388 -8.625,-5.814 -3.299,-1.428 -6.819,-2.14 -10.563,-2.14 h -26.208 -1.07 v 18.185 h 27.278 c 2.494,0 4.634,0.869 6.418,2.606 1.781,1.74 2.674,3.899 2.674,6.486 0,2.494 -0.893,4.613 -2.674,6.35 -1.784,1.741 -3.924,2.609 -6.418,2.609 h -0.936 c -3.744,0 -7.267,0.712 -10.563,2.14 -3.299,1.423 -6.175,3.363 -8.625,5.815 -2.453,2.451 -4.392,5.348 -5.816,8.693 -1.427,3.341 -2.14,6.885 -2.14,10.63 0,3.744 0.713,7.264 2.14,10.563 1.424,3.296 3.363,6.169 5.816,8.623 2.45,2.449 5.326,4.389 8.625,5.818 3.296,1.423 6.819,2.137 10.563,2.137 l 27.276,0 z"
             style="fill:#979797;fill-opacity:1;fill-rule:nonzero;stroke:none"
             id="path34"
             inkscape:connector-curvature="0" /></g><g
           id="g36"
           transform="translate(317.4044,148.0108)"><path
             d="m 0,0 c -2.392,0 -4.496,-0.869 -6.312,-2.606 -1.817,-1.738 -2.723,-3.856 -2.723,-6.35 V -29.95 h 21.526 v 20.994 c 0,2.494 -0.864,4.612 -2.592,6.35 C 8.172,-0.869 6.024,0 3.456,0 Z m 3.328,18.185 c 3.824,0 7.382,-0.714 10.672,-2.137 3.291,-1.429 6.159,-3.369 8.606,-5.818 2.445,-2.454 4.379,-5.327 5.801,-8.623 1.423,-3.299 2.136,-6.819 2.136,-10.563 V -45.193 -72.47 H 12.491 v 25.54 H -9.035 v -25.54 h -18.052 v 27.277 36.237 c 0,3.744 0.711,7.264 2.134,10.563 1.423,3.296 3.335,6.169 5.737,8.623 2.4,2.449 5.246,4.389 8.537,5.818 3.289,1.423 6.804,2.137 10.539,2.137 h 2.401 z"
             style="fill:#979797;fill-opacity:1;fill-rule:nonzero;stroke:none"
             id="path38"
             inkscape:connector-curvature="0" /></g><g
           id="g40"
           transform="translate(40.7578,40.6917)"><path
             d="m 0,0 c -0.148,1.013 -0.53,1.752 -1.141,2.215 -0.611,0.46 -1.539,0.692 -2.794,0.692 -1.19,0 -2.092,-0.142 -2.703,-0.424 C -7.25,2.2 -7.555,1.714 -7.555,1.03 c 0,-0.596 0.305,-1.074 0.917,-1.432 0.611,-0.358 1.498,-0.698 2.66,-1.027 1.906,-0.535 3.515,-0.992 4.828,-1.365 1.309,-0.372 2.36,-0.812 3.152,-1.318 0.788,-0.507 1.356,-1.138 1.699,-1.898 0.341,-0.762 0.513,-1.781 0.513,-3.064 0,-1.965 -0.821,-3.598 -2.46,-4.896 -1.638,-1.295 -4.065,-1.944 -7.284,-1.944 -1.581,0 -3.012,0.181 -4.293,0.539 -1.281,0.358 -2.378,0.87 -3.286,1.542 -0.908,0.67 -1.609,1.473 -2.101,2.413 -0.492,0.94 -0.751,1.99 -0.783,3.152 h 5.992 c 0,-1.045 0.408,-1.848 1.229,-2.416 0.82,-0.564 1.886,-0.847 3.195,-0.847 1.103,0 2.049,0.169 2.841,0.512 0.788,0.344 1.184,0.874 1.184,1.589 0,0.804 -0.291,1.386 -0.873,1.744 -0.579,0.355 -1.467,0.669 -2.66,0.937 -2.145,0.477 -3.874,0.975 -5.183,1.499 -1.313,0.521 -2.334,1.094 -3.065,1.72 -0.73,0.625 -1.222,1.312 -1.473,2.057 -0.256,0.743 -0.381,1.578 -0.381,2.503 0,0.833 0.172,1.624 0.515,2.369 0.341,0.745 0.885,1.4 1.63,1.968 0.745,0.564 1.714,1.018 2.908,1.362 1.19,0.343 2.651,0.515 4.38,0.515 3.157,0 5.468,-0.643 6.929,-1.924 C 4.633,4.04 5.439,2.267 5.588,0 Z"
             style="fill:#ec8027;fill-opacity:1;fill-rule:nonzero;stroke:none"
             id="path42"
             inkscape:connector-curvature="0" /></g><g
           id="g44"
           transform="translate(78.4439,29.6528)"><path
             d="m 0,0 c 3.545,0 5.32,2.235 5.32,6.705 0,4.439 -1.775,6.659 -5.32,6.659 -3.548,0 -5.32,-2.22 -5.32,-6.659 C -5.32,2.235 -3.548,0 0,0 m 0,-4.875 c -1.79,0 -3.385,0.285 -4.785,0.85 -1.399,0.568 -2.584,1.356 -3.553,2.369 -0.969,1.013 -1.706,2.235 -2.212,3.667 -0.506,1.429 -0.76,2.995 -0.76,4.694 0,1.726 0.259,3.307 0.78,4.738 0.521,1.429 1.275,2.652 2.259,3.665 0.983,1.012 2.168,1.795 3.553,2.348 1.386,0.55 2.957,0.827 4.718,0.827 1.726,0 3.277,-0.277 4.648,-0.827 1.371,-0.553 2.541,-1.327 3.51,-2.325 0.969,-0.998 1.714,-2.212 2.235,-3.644 0.521,-1.429 0.783,-3.024 0.783,-4.782 0,-1.76 -0.262,-3.346 -0.783,-4.761 C 9.872,0.527 9.127,-0.687 8.158,-1.7 7.189,-2.712 6.013,-3.495 4.625,-4.048 3.239,-4.598 1.697,-4.875 0,-4.875"
             style="fill:#ec8027;fill-opacity:1;fill-rule:nonzero;stroke:none"
             id="path46"
             inkscape:connector-curvature="0" /></g><path
           d="m 110.72,55.401 h 5.809 V 25.36 h -5.809 z"
           style="fill:#ec8027;fill-opacity:1;fill-rule:nonzero;stroke:none"
           id="path48"
           inkscape:connector-curvature="0" /><g
           id="g50"
           transform="translate(152.3375,25.36)"><path
             d="m 0,0 v 3.085 c -1.49,-2.445 -3.772,-3.667 -6.839,-3.667 -1.103,0 -2.11,0.195 -3.018,0.582 -0.911,0.387 -1.691,0.94 -2.346,1.653 -0.658,0.716 -1.17,1.566 -1.543,2.55 -0.375,0.983 -0.558,2.083 -0.558,3.306 v 14.484 h 5.809 V 8.405 c 0,-2.744 1.237,-4.112 3.71,-4.112 1.49,0 2.617,0.468 3.376,1.405 0.76,0.941 1.141,2.14 1.141,3.601 V 21.993 H 5.498 L 5.498,0 Z"
             style="fill:#ec8027;fill-opacity:1;fill-rule:nonzero;stroke:none"
             id="path52"
             inkscape:connector-curvature="0" /></g><g
           id="g54"
           transform="translate(191.8542,39.8448)"><path
             d="m 0,0 h 5.407 v -6.26 c 0,-1.161 -0.171,-2.273 -0.515,-3.33 -0.34,-1.059 -0.879,-1.996 -1.606,-2.817 -0.734,-0.821 -1.656,-1.467 -2.774,-1.944 -1.117,-0.477 -2.45,-0.716 -4.002,-0.716 -1.606,0 -2.98,0.239 -4.112,0.716 -1.132,0.477 -2.063,1.118 -2.794,1.924 -0.73,0.803 -1.257,1.743 -1.586,2.814 -0.329,1.074 -0.492,2.206 -0.492,3.399 v 19.669 h 5.722 V 7.509 H 5.407 V 3.396 H -6.752 v -9.03 c 0,-1.4 0.262,-2.48 0.783,-3.24 0.521,-0.759 1.379,-1.14 2.57,-1.14 1.164,0 2.019,0.372 2.57,1.117 C -0.276,-8.152 0,-7.095 0,-5.722 Z"
             style="fill:#ec8027;fill-opacity:1;fill-rule:nonzero;stroke:none"
             id="path56"
             inkscape:connector-curvature="0" /></g><path
           d="m 218.72,47.353 h 5.812 V 25.36 h -5.812 z m 0,8.048 h 5.812 v -5.41 h -5.812 z"
           style="fill:#ec8027;fill-opacity:1;fill-rule:nonzero;stroke:none"
           id="path58"
           inkscape:connector-curvature="0" /><g
           id="g60"
           transform="translate(257.0284,29.6528)"><path
             d="m 0,0 c 3.548,0 5.32,2.235 5.32,6.705 0,4.439 -1.772,6.659 -5.32,6.659 -3.545,0 -5.32,-2.22 -5.32,-6.659 C -5.32,2.235 -3.545,0 0,0 m 0,-4.875 c -1.787,0 -3.382,0.285 -4.782,0.85 -1.402,0.568 -2.587,1.356 -3.553,2.369 -0.969,1.013 -1.709,2.235 -2.215,3.667 -0.506,1.429 -0.76,2.995 -0.76,4.694 0,1.726 0.262,3.307 0.783,4.738 0.521,1.429 1.275,2.652 2.259,3.665 0.983,1.012 2.168,1.795 3.553,2.348 1.386,0.55 2.957,0.827 4.715,0.827 1.729,0 3.28,-0.277 4.651,-0.827 1.371,-0.553 2.54,-1.327 3.507,-2.325 0.969,-0.998 1.714,-2.212 2.235,-3.644 0.521,-1.429 0.783,-3.024 0.783,-4.782 0,-1.76 -0.262,-3.346 -0.783,-4.761 C 9.872,0.527 9.127,-0.687 8.158,-1.7 7.191,-2.712 6.013,-3.495 4.627,-4.048 3.242,-4.598 1.7,-4.875 0,-4.875"
             style="fill:#ec8027;fill-opacity:1;fill-rule:nonzero;stroke:none"
             id="path62"
             inkscape:connector-curvature="0" /></g><g
           id="g64"
           transform="translate(303.3873,25.36)"><path
             d="m 0,0 v 13.321 c 0,1.699 -0.285,2.846 -0.85,3.443 -0.567,0.596 -1.536,0.893 -2.907,0.893 -3.01,0 -4.514,-1.682 -4.514,-5.049 V 0 h -5.812 v 21.993 h 5.544 v -3.218 c 0.684,1.251 1.592,2.197 2.727,2.84 1.132,0.64 2.593,0.961 4.38,0.961 1.042,0 2.011,-0.158 2.905,-0.469 0.896,-0.314 1.661,-0.783 2.302,-1.409 0.643,-0.625 1.149,-1.394 1.522,-2.302 0.372,-0.911 0.559,-1.961 0.559,-3.152 L 5.856,0 Z"
             style="fill:#ec8027;fill-opacity:1;fill-rule:nonzero;stroke:none"
             id="path66"
             inkscape:connector-curvature="0" /></g><g
           id="g68"
           transform="translate(344.0215,40.6917)"><path
             d="M 0,0 C -0.151,1.013 -0.53,1.752 -1.141,2.215 -1.752,2.675 -2.683,2.907 -3.935,2.907 -5.128,2.907 -6.03,2.765 -6.639,2.483 -7.25,2.2 -7.555,1.714 -7.555,1.03 c 0,-0.596 0.305,-1.074 0.916,-1.432 0.609,-0.358 1.496,-0.698 2.661,-1.027 1.906,-0.535 3.515,-0.992 4.828,-1.365 1.309,-0.372 2.36,-0.812 3.149,-1.318 0.791,-0.507 1.356,-1.138 1.699,-1.898 0.344,-0.762 0.516,-1.781 0.516,-3.064 0,-1.965 -0.821,-3.598 -2.46,-4.896 -1.638,-1.295 -4.068,-1.944 -7.287,-1.944 -1.58,0 -3.009,0.181 -4.29,0.539 -1.283,0.358 -2.378,0.87 -3.286,1.542 -0.911,0.67 -1.609,1.473 -2.101,2.413 -0.492,0.94 -0.754,1.99 -0.783,3.152 h 5.99 c 0,-1.045 0.41,-1.848 1.231,-2.416 0.817,-0.564 1.883,-0.847 3.195,-0.847 1.103,0 2.049,0.169 2.838,0.512 0.788,0.344 1.184,0.874 1.184,1.589 0,0.804 -0.291,1.386 -0.87,1.744 -0.582,0.355 -1.47,0.669 -2.66,0.937 -2.145,0.477 -3.874,0.975 -5.186,1.499 -1.313,0.521 -2.331,1.094 -3.062,1.72 -0.73,0.625 -1.222,1.312 -1.475,2.057 -0.254,0.743 -0.382,1.578 -0.382,2.503 0,0.833 0.172,1.624 0.515,2.369 0.344,0.745 0.888,1.4 1.633,1.968 0.745,0.564 1.711,1.018 2.905,1.362 1.193,0.343 2.651,0.515 4.38,0.515 3.16,0 5.468,-0.643 6.929,-1.924 C 4.633,4.04 5.437,2.267 5.588,0 Z"
             style="fill:#ec8027;fill-opacity:1;fill-rule:nonzero;stroke:none"
             id="path70"
             inkscape:connector-curvature="0" /></g></g></g></g></svg>